<?xml version="1.0" standalone="no"?>
<!DOCTYPE svg PUBLIC "-//W3C//DTD SVG 20010904//EN"
 "http://www.w3.org/TR/2001/REC-SVG-20010904/DTD/svg10.dtd">
<svg version="1.0" xmlns="http://www.w3.org/2000/svg"
 width="216.000000pt" height="216.000000pt" viewBox="0 0 216.000000 216.000000"
 preserveAspectRatio="xMidYMid meet">
<metadata>
Created by potrace 1.14, written by Peter Selinger 2001-2017
</metadata>
<g transform="translate(0.000000,216.000000) scale(0.100000,-0.100000)"
fill="#000000" stroke="none">
<path d="M1446 1568 c-33 -19 -75 -60 -81 -79 -5 -14 -13 -17 -35 -13 -39 8
-53 -22 -54 -119 -1 -43 -6 -81 -11 -85 -6 -4 -32 -22 -59 -40 -26 -19 -76
-42 -111 -52 -72 -21 -220 -94 -251 -126 -12 -11 -32 -20 -45 -19 -98 8 -214
-160 -162 -234 20 -29 49 -26 84 8 16 16 29 24 29 17 0 -17 33 -46 52 -46 9 0
27 13 40 29 l25 28 10 -28 c21 -54 88 -33 135 41 16 26 68 164 68 181 0 16
-36 10 -54 -10 -10 -11 -18 -39 -20 -74 -3 -56 -33 -120 -61 -131 -25 -9 -27
13 -6 77 36 110 34 145 -8 134 -26 -7 -27 5 -2 18 174 89 247 118 335 136 70
13 117 -2 156 -51 33 -42 82 -76 139 -96 20 -7 28 -13 19 -14 -12 0 -18 -8
-18 -24 0 -33 -65 -158 -90 -174 -17 -11 -20 -10 -20 7 0 11 15 49 34 85 19
36 30 66 26 66 -5 0 -7 6 -4 14 3 9 -5 21 -20 31 -58 38 -153 -19 -199 -118
-14 -29 -35 -63 -48 -77 l-24 -25 -3 35 c-2 19 -10 40 -18 46 -12 10 -12 13 2
25 10 8 23 27 29 43 25 59 -22 98 -82 69 -33 -16 -101 -129 -86 -144 6 -6 20
9 37 41 38 70 86 91 86 38 0 -23 -55 -78 -77 -78 -8 0 -11 -5 -8 -10 4 -6 19
-9 33 -8 21 2 28 -2 30 -19 6 -40 -14 -57 -101 -87 -137 -46 -189 -105 -144
-162 17 -22 26 -25 57 -21 84 11 177 83 214 166 11 22 25 41 32 41 7 0 24 11
37 24 l23 23 10 -21 c13 -30 47 -31 82 -1 30 25 31 25 37 5 10 -31 52 -37 79
-11 l23 21 18 -20 c22 -24 43 -25 72 -5 19 13 22 13 27 0 3 -8 16 -15 29 -15
22 0 25 6 31 50 6 43 15 59 55 100 28 30 56 50 69 50 12 0 22 -4 22 -8 0 -15
-33 -39 -63 -46 -49 -12 -60 -88 -18 -129 25 -25 66 -25 100 1 28 20 28 20 44
1 23 -26 49 -24 82 7 15 14 28 24 29 22 24 -54 53 -60 94 -18 32 31 62 83 62
107 0 25 -15 13 -39 -31 -13 -25 -32 -53 -42 -62 -18 -16 -19 -16 -19 12 0 16
14 54 31 84 16 30 26 56 20 58 -5 2 -7 11 -4 21 8 29 -44 46 -96 30 -48 -14
-80 -49 -118 -123 -29 -58 -60 -96 -80 -96 -19 0 -43 43 -37 67 4 13 24 31 49
43 64 31 89 110 35 110 -29 0 -82 -24 -99 -43 -7 -10 -17 -17 -21 -17 -12 0
56 119 102 181 29 38 36 54 27 59 -37 23 -70 -17 -167 -203 -73 -138 -102
-185 -120 -192 -28 -11 -31 7 -10 58 12 29 29 75 39 102 10 28 21 50 26 50 21
2 53 17 53 26 0 6 -5 7 -12 3 -7 -4 -8 -3 -4 5 4 6 11 9 16 6 5 -3 11 -1 14 3
8 13 -32 47 -93 80 -54 30 -55 42 -3 50 41 5 69 20 69 36 0 9 -1 16 -1 16 -1
0 -23 -8 -50 -19 -53 -20 -95 -16 -152 14 -24 12 -26 15 -9 16 11 1 31 3 45 4
42 3 44 5 32 17 -9 9 -24 8 -65 -2 -37 -8 -60 -9 -72 -3 -15 9 -9 13 34 23 28
6 51 16 51 20 0 18 37 19 114 4 113 -22 109 -20 94 -46 -15 -29 -19 -48 -8
-48 23 0 44 64 26 79 -6 5 -42 15 -79 21 -37 7 -67 14 -67 16 0 3 18 27 40 55
41 52 57 101 45 139 -6 20 -12 22 -66 18 -42 -3 -60 -1 -63 9 -6 16 -54 17
-80 1z m46 -87 c-12 -38 -36 -86 -52 -106 -31 -39 -39 -40 -19 -3 7 14 8 23 1
30 -7 7 -16 0 -27 -23 -8 -19 -28 -54 -43 -79 -36 -61 -42 -30 -8 44 33 71 41
106 27 106 -13 0 12 54 30 66 6 3 3 -5 -6 -19 -9 -15 -15 -32 -13 -38 2 -7 13
5 24 27 24 45 82 90 98 74 7 -7 3 -32 -12 -79z m148 54 c34 -40 -63 -189 -119
-183 -14 1 -31 -1 -38 -5 -18 -11 -14 29 9 93 38 105 40 106 104 109 17 0 37
-6 44 -14z m-300 -80 c7 -8 12 -25 12 -38 0 -32 -44 -129 -54 -119 -13 13 -11
127 2 151 13 25 23 26 40 6z m-44 -220 c-7 -11 -34 -26 -60 -33 -25 -7 -44
-17 -41 -23 4 -5 -1 -9 -10 -9 -27 0 -164 -58 -225 -95 -65 -39 -115 -55 -108
-34 6 20 216 125 265 132 24 4 67 26 109 56 45 31 71 45 76 37 4 -6 1 -20 -6
-31z m142 10 c23 -13 58 -27 77 -31 43 -8 52 -20 25 -34 -30 -16 -77 -15 -160
5 -41 9 -79 18 -84 19 -16 3 58 66 78 66 12 0 40 -11 64 -25z m184 -118 c26
-15 49 -31 52 -36 21 -33 -108 -45 -165 -16 -39 20 -67 43 -79 65 -7 14 2 16
68 16 65 -1 84 -5 124 -29z m-718 -129 c7 -27 -40 -131 -75 -168 -37 -38 -37
-4 0 73 20 41 29 73 25 90 -4 23 -1 27 20 27 16 0 26 -7 30 -22z m-75 -2 c9
-11 7 -15 -8 -19 -10 -2 -37 -35 -59 -73 -41 -70 -75 -103 -87 -83 -18 27 46
138 97 169 39 24 42 24 57 6z m650 0 c9 -11 7 -15 -8 -19 -10 -2 -37 -35 -59
-73 -44 -76 -78 -106 -89 -79 -9 25 28 96 74 143 45 44 63 51 82 28z m601 -1
c10 -12 10 -15 -2 -15 -7 0 -29 -26 -48 -57 -48 -80 -88 -122 -99 -104 -13 20
-2 50 38 107 31 45 72 83 92 84 4 0 12 -7 19 -15z"/>
<path d="M390 1333 c-88 -29 -143 -92 -132 -149 7 -36 48 -71 121 -104 98 -44
114 -55 137 -89 39 -55 8 -129 -79 -188 -111 -75 -308 -67 -366 16 -42 59 -24
171 39 236 41 42 24 53 -27 16 -51 -37 -83 -104 -83 -175 0 -48 4 -58 37 -95
128 -141 452 -87 544 91 46 89 15 140 -131 214 -58 30 -111 61 -117 71 -20 27
-15 57 15 85 75 70 241 71 258 1 7 -28 -1 -42 -34 -54 -17 -7 -22 -13 -15 -20
15 -15 72 16 83 46 12 33 -2 69 -35 91 -36 23 -156 27 -215 7z"/>
<path d="M1229 755 c-3 -5 -5 -27 -4 -47 2 -29 -1 -38 -13 -38 -13 0 -13 -3
-4 -12 20 -20 33 5 30 58 -2 27 -6 45 -9 39z"/>
<path d="M1509 748 c-6 -65 -4 -88 5 -85 6 2 10 18 8 35 -3 41 2 40 22 -3 24
-50 43 -45 43 10 0 25 -4 48 -8 51 -5 3 -9 -12 -9 -33 l0 -38 -22 38 c-22 38
-37 47 -39 25z"/>
<path d="M1958 720 c-2 -23 0 -46 4 -53 10 -15 10 -13 12 46 2 57 -10 63 -16
7z"/>
<path d="M1413 734 c-7 -6 -9 -15 -5 -18 3 -4 7 -16 9 -29 4 -26 20 -44 30
-32 5 4 2 10 -4 12 -15 5 -17 35 -4 49 6 5 5 13 -3 20 -8 8 -15 7 -23 -2z"/>
<path d="M1689 738 c-3 -34 4 -74 14 -80 19 -11 28 2 12 18 -19 19 -19 31 0
41 12 7 11 10 -5 21 -16 10 -20 10 -21 0z"/>
<path d="M2015 723 c-18 -17 -18 -18 -4 -41 13 -21 54 -18 63 4 14 36 -32 65
-59 37z"/>
<path d="M1267 715 c-11 -27 8 -58 36 -59 25 -2 27 2 27 36 0 21 -4 38 -9 38
-4 0 -8 -8 -8 -17 0 -35 -3 -43 -16 -43 -7 0 -14 12 -15 27 -3 33 -8 39 -15
18z"/>
<path d="M1350 714 c0 -9 8 -23 18 -30 16 -12 15 -13 -7 -14 -28 0 -24 -9 7
-15 30 -5 36 23 10 47 -18 15 -19 18 -5 14 9 -3 17 -1 17 4 0 6 -9 10 -20 10
-12 0 -20 -7 -20 -16z"/>
<path d="M1610 719 c0 -5 5 -7 10 -4 6 3 15 3 21 -1 7 -4 2 -11 -14 -18 -30
-13 -24 -34 12 -41 26 -5 36 14 27 50 -5 18 -13 25 -31 25 -14 0 -25 -5 -25
-11z m40 -39 c0 -5 -7 -10 -16 -10 -8 0 -12 5 -9 10 3 6 10 10 16 10 5 0 9 -4
9 -10z"/>
<path d="M1740 701 c0 -17 6 -33 12 -37 16 -10 48 -13 49 -5 6 33 4 63 -3 67
-4 3 -8 -9 -8 -25 0 -21 -5 -31 -15 -31 -14 0 -20 17 -16 48 1 6 -3 12 -9 12
-5 0 -10 -13 -10 -29z"/>
<path d="M1828 707 c-3 -13 -1 -32 3 -43 7 -18 8 -18 9 1 2 11 2 24 1 29 -1 4
6 14 16 22 17 13 17 13 -3 14 -15 0 -23 -7 -26 -23z"/>
<path d="M1880 719 c0 -6 9 -8 20 -4 11 4 20 2 20 -4 0 -6 -6 -11 -14 -11 -7
0 -19 -6 -25 -14 -14 -16 3 -31 34 -31 19 0 23 14 16 65 -1 13 -51 13 -51 -1z
m40 -39 c0 -5 -7 -10 -16 -10 -8 0 -12 5 -9 10 3 6 10 10 16 10 5 0 9 -4 9
-10z"/>
</g>
</svg>
